<svg width="56" height="56" viewBox="0 0 56 56" fill="none" xmlns="http://www.w3.org/2000/svg">
<rect width="56" height="56" rx="9.37716" fill="#9EFF00"/>
<path d="M20.1162 10.9277C23.4421 9.53436 27.1738 8.5135 30.7705 9.24219C30.9315 9.27279 31.0929 9.30343 31.2588 9.33496C34.9722 10.0618 34.9724 10.0618 36.3271 11.4844C36.8729 12.0403 37.5245 12.3118 38.2246 12.627C41.7704 14.2933 43.7753 18.2281 45.1641 21.7402C46.6651 26.0851 46.0102 31.3619 44.2627 35.5361C42.5456 39.0468 39.8775 42.4604 36.168 43.8721C35.7466 44.0331 35.7463 44.0329 35.3164 44.1973C33.5484 44.6971 33.5481 44.6968 32.7305 44.5225C32.0139 44.3427 32.0133 44.3425 31.124 44.5547C30.8377 44.5869 30.5508 44.6191 30.2559 44.6523C30.0016 44.3948 29.7473 44.1374 29.4854 43.8721C31.1392 43.2277 31.1389 43.2267 32.8262 42.5693C32.7414 42.3976 32.6567 42.2257 32.5693 42.0488C32.7585 41.9324 32.9477 41.8162 33.1426 41.6963C34.4698 40.8633 35.6146 40.0753 36.6816 38.9248H37.1963C37.2628 38.7793 37.3289 38.6333 37.3975 38.4834C37.7459 37.8137 38.1555 37.2263 38.5938 36.6133C39.2486 35.6782 39.8143 34.7658 40.2803 33.7168C40.3651 33.545 40.4498 33.3732 40.5371 33.1963H41.0518C41.6565 28.1754 42.2152 23.2838 38.9463 18.9951C36.5306 15.9789 33.8511 14.2512 29.999 13.668C25.7286 13.2441 21.8479 14.2432 18.4912 17.0176C15.6323 19.792 13.8741 23.3508 13.709 27.3545C13.7631 30.2075 14.5029 33.1849 16.1191 35.54C16.2483 35.737 16.3777 35.9338 16.5107 36.1367C18.1313 38.4372 20.3787 39.965 23.0586 40.7471C23.4272 40.7889 23.7977 40.8222 24.168 40.8447C25.1118 41.0068 25.2813 41.0422 25.8867 41.707C26.4571 42.6639 26.6244 43.0423 26.4004 44.1318C25.8617 45.0219 25.3444 45.6172 24.3438 45.9551C21.2208 46.2987 18.2414 44.6344 15.8701 42.7412C13.8741 41.0398 12.5477 39.1071 11.2354 36.8418C11.0658 36.5841 10.8964 36.326 10.7217 36.0605C10.3314 34.8591 10.018 33.6362 9.69336 32.415C9.63375 32.2185 9.57411 32.0219 9.5127 31.8193C8.1611 26.91 9.65356 21.8775 12.0068 17.5742C13.7005 14.8047 16.2275 12.5476 19.2031 11.3252C19.5043 11.1943 19.8059 11.0626 20.1162 10.9277Z" fill="#1A1A1A"/>
<path d="M20.1162 10.9277C23.4421 9.53436 27.1738 8.5135 30.7705 9.24219C30.9315 9.27279 31.0929 9.30343 31.2588 9.33496C34.9722 10.0618 34.9724 10.0618 36.3271 11.4844C36.8729 12.0403 37.5245 12.3118 38.2246 12.627C41.7704 14.2933 43.7753 18.2281 45.1641 21.7402C46.6651 26.0851 46.0102 31.3619 44.2627 35.5361C42.5456 39.0468 39.8775 42.4604 36.168 43.8721C35.7466 44.0331 35.7463 44.0329 35.3164 44.1973C33.5484 44.6971 33.5481 44.6968 32.7305 44.5225C32.0139 44.3427 32.0133 44.3425 31.124 44.5547C30.8377 44.5869 30.5508 44.6191 30.2559 44.6523C30.0016 44.3948 29.7473 44.1374 29.4854 43.8721C31.1392 43.2277 31.1389 43.2267 32.8262 42.5693C32.7414 42.3976 32.6567 42.2257 32.5693 42.0488C32.7585 41.9324 32.9477 41.8162 33.1426 41.6963C34.4698 40.8633 35.6146 40.0753 36.6816 38.9248H37.1963C37.2628 38.7793 37.3289 38.6333 37.3975 38.4834C37.7459 37.8137 38.1555 37.2263 38.5938 36.6133C39.2486 35.6782 39.8143 34.7658 40.2803 33.7168C40.3651 33.545 40.4498 33.3732 40.5371 33.1963H41.0518C41.6565 28.1754 42.2152 23.2838 38.9463 18.9951C36.5306 15.9789 33.8511 14.2512 29.999 13.668C25.7286 13.2441 21.8479 14.2432 18.4912 17.0176C15.6323 19.792 13.8741 23.3508 13.709 27.3545C13.7631 30.2075 14.5029 33.1849 16.1191 35.54C16.2483 35.737 16.3777 35.9338 16.5107 36.1367C18.1313 38.4372 20.3787 39.965 23.0586 40.7471C23.4272 40.7889 23.7977 40.8222 24.168 40.8447C25.1118 41.0068 25.2813 41.0422 25.8867 41.707C26.4571 42.6639 26.6244 43.0423 26.4004 44.1318C25.8617 45.0219 25.3444 45.6172 24.3438 45.9551C21.2208 46.2987 18.2414 44.6344 15.8701 42.7412C13.8741 41.0398 12.5477 39.1071 11.2354 36.8418C11.0658 36.5841 10.8964 36.326 10.7217 36.0605C10.3314 34.8591 10.018 33.6362 9.69336 32.415C9.63375 32.2185 9.57411 32.0219 9.5127 31.8193C8.1611 26.91 9.65356 21.8775 12.0068 17.5742C13.7005 14.8047 16.2275 12.5476 19.2031 11.3252C19.5043 11.1943 19.8059 11.0626 20.1162 10.9277Z" stroke="#1A1A1A"/>
</svg>
