<svg width="200" height="56" viewBox="0 0 200 56" fill="none" xmlns="http://www.w3.org/2000/svg">
<rect width="56" height="56" rx="9.37716" fill="#9EFF00"/>
<path d="M10.2056 17.4648L28 28V48.1127L10.2056 37.8967L10.2056 17.4648Z" fill="#1A1A1A"/>
<path fill-rule="evenodd" clip-rule="evenodd" d="M29.5701 27.9859V45.3944L44.2243 36.9813V19.3098L29.5701 27.9859ZM45.7944 37.8967L28 48.1127V28L10.2056 17.4648L28 7.88731L45.7944 17.4648V37.8967ZM43.4011 17.9662L28 9.67688L13.4088 17.5303L28.7731 26.6268L43.4011 17.9662Z" fill="#1A1A1A"/>
<path d="M200 24.3561L193.831 38.8629H190.587L192.844 33.8569L188.842 24.3561H192.209L194.483 30.5078L196.739 24.3561H200Z" fill="white"/>
<path d="M178.681 29.2739C178.681 28.2516 178.887 27.3585 179.298 26.5947C179.721 25.8309 180.303 25.2433 181.043 24.832C181.795 24.4207 182.653 24.2151 183.617 24.2151C184.85 24.2151 185.879 24.5382 186.701 25.1845C187.536 25.8309 188.082 26.7416 188.341 27.9167H185.132C184.862 27.1646 184.339 26.7886 183.564 26.7886C183.011 26.7886 182.571 27.006 182.242 27.4408C181.913 27.8638 181.748 28.4749 181.748 29.2739C181.748 30.073 181.913 30.69 182.242 31.1247C182.571 31.5478 183.011 31.7593 183.564 31.7593C184.339 31.7593 184.862 31.3833 185.132 30.6312H188.341C188.082 31.7828 187.536 32.6876 186.701 33.3457C185.867 34.0038 184.839 34.3328 183.617 34.3328C182.653 34.3328 181.795 34.1272 181.043 33.7159C180.303 33.3046 179.721 32.717 179.298 31.9532C178.887 31.1894 178.681 30.2963 178.681 29.2739Z" fill="white"/>
<path d="M173.396 24.2503C174.548 24.2503 175.464 24.6264 176.146 25.3784C176.839 26.1188 177.186 27.1411 177.186 28.4455V34.1918H174.189V28.8509C174.189 28.1928 174.019 27.6817 173.678 27.3174C173.337 26.9531 172.879 26.7709 172.303 26.7709C171.727 26.7709 171.269 26.9531 170.928 27.3174C170.588 27.6817 170.417 28.1928 170.417 28.8509V34.1918H167.403V24.3561H170.417V25.6605C170.723 25.2257 171.134 24.8849 171.651 24.6381C172.168 24.3796 172.75 24.2503 173.396 24.2503Z" fill="white"/>
<path d="M165.813 29.1153C165.813 29.3973 165.795 29.6911 165.76 29.9966H158.938C158.985 30.6077 159.179 31.0777 159.52 31.4068C159.873 31.7241 160.302 31.8827 160.807 31.8827C161.559 31.8827 162.082 31.5654 162.376 30.9309H165.584C165.419 31.5772 165.12 32.1588 164.685 32.6759C164.262 33.1929 163.727 33.5984 163.081 33.8921C162.434 34.1859 161.712 34.3328 160.913 34.3328C159.949 34.3328 159.091 34.1272 158.339 33.7159C157.587 33.3046 157 32.717 156.577 31.9532C156.153 31.1894 155.942 30.2963 155.942 29.2739C155.942 28.2516 156.148 27.3585 156.559 26.5947C156.982 25.8309 157.569 25.2433 158.322 24.832C159.074 24.4207 159.937 24.2151 160.913 24.2151C161.865 24.2151 162.711 24.4148 163.451 24.8144C164.191 25.2139 164.767 25.7839 165.178 26.5242C165.601 27.2645 165.813 28.1282 165.813 29.1153ZM162.728 28.3221C162.728 27.805 162.552 27.3938 162.199 27.0882C161.847 26.7827 161.406 26.6299 160.877 26.6299C160.372 26.6299 159.943 26.7768 159.591 27.0706C159.25 27.3644 159.038 27.7815 158.956 28.3221H162.728Z" fill="white"/>
<path d="M148.315 24.2151C149.008 24.2151 149.613 24.3561 150.13 24.6381C150.659 24.9201 151.064 25.2903 151.346 25.7486V24.3561H154.361V34.1742C154.361 35.079 154.178 35.8957 153.814 36.6243C153.462 37.3646 152.915 37.9522 152.175 38.3869C151.446 38.8217 150.536 39.0391 149.443 39.0391C147.986 39.0391 146.805 38.6925 145.9 37.9992C144.995 37.3176 144.478 36.3893 144.349 35.2141H147.328C147.422 35.5902 147.645 35.884 147.997 36.0955C148.35 36.3187 148.785 36.4304 149.302 36.4304C149.925 36.4304 150.418 36.2482 150.782 35.884C151.158 35.5314 151.346 34.9615 151.346 34.1742V32.7817C151.053 33.2399 150.647 33.616 150.13 33.9098C149.613 34.1918 149.008 34.3328 148.315 34.3328C147.504 34.3328 146.769 34.1272 146.111 33.7159C145.453 33.2928 144.93 32.6994 144.543 31.9356C144.166 31.16 143.978 30.2669 143.978 29.2563C143.978 28.2457 144.166 27.3585 144.543 26.5947C144.93 25.8309 145.453 25.2433 146.111 24.832C146.769 24.4207 147.504 24.2151 148.315 24.2151ZM151.346 29.2739C151.346 28.5219 151.135 27.9284 150.712 27.4936C150.301 27.0589 149.795 26.8415 149.196 26.8415C148.597 26.8415 148.085 27.0589 147.662 27.4936C147.251 27.9167 147.046 28.5042 147.046 29.2563C147.046 30.0084 147.251 30.6077 147.662 31.0542C148.085 31.489 148.597 31.7064 149.196 31.7064C149.795 31.7064 150.301 31.489 150.712 31.0542C151.135 30.6194 151.346 30.026 151.346 29.2739Z" fill="white"/>
<path d="M139.284 32.0061H134.666L133.926 34.1918H130.771L135.248 21.8178H138.738L143.215 34.1918H140.025L139.284 32.0061ZM138.509 29.6794L136.975 25.1493L135.459 29.6794H138.509Z" fill="white"/>
<path d="M125.662 21.148V34.1918H122.648V21.148H125.662Z" fill="white"/>
<path d="M110.085 29.2563C110.085 28.2457 110.273 27.3585 110.649 26.5947C111.037 25.8309 111.56 25.2433 112.218 24.832C112.876 24.4207 113.61 24.2151 114.421 24.2151C115.114 24.2151 115.72 24.3561 116.237 24.6381C116.765 24.9201 117.171 25.2903 117.453 25.7486V24.3561H120.467V34.1918H117.453V32.7993C117.159 33.2576 116.748 33.6277 116.219 33.9098C115.702 34.1918 115.097 34.3328 114.403 34.3328C113.604 34.3328 112.876 34.1272 112.218 33.7159C111.56 33.2928 111.037 32.6994 110.649 31.9356C110.273 31.16 110.085 30.2669 110.085 29.2563ZM117.453 29.2739C117.453 28.5219 117.241 27.9284 116.818 27.4936C116.407 27.0589 115.902 26.8415 115.302 26.8415C114.703 26.8415 114.192 27.0589 113.769 27.4936C113.358 27.9167 113.152 28.5042 113.152 29.2563C113.152 30.0084 113.358 30.6077 113.769 31.0542C114.192 31.489 114.703 31.7064 115.302 31.7064C115.902 31.7064 116.407 31.489 116.818 31.0542C117.241 30.6194 117.453 30.026 117.453 29.2739Z" fill="white"/>
<path d="M109.005 31.6359V34.1918H107.472C106.379 34.1918 105.527 33.9274 104.916 33.3986C104.305 32.858 103.999 31.9826 103.999 30.7722V26.8591H102.801V24.3561H103.999V21.9589H107.014V24.3561H108.988V26.8591H107.014V30.8075C107.014 31.1012 107.084 31.3128 107.225 31.442C107.366 31.5713 107.601 31.6359 107.93 31.6359H109.005Z" fill="white"/>
<path d="M99.8408 23.3337C99.312 23.3337 98.8772 23.181 98.5364 22.8754C98.2074 22.5582 98.0429 22.1704 98.0429 21.7121C98.0429 21.242 98.2074 20.8543 98.5364 20.5487C98.8772 20.2314 99.312 20.0728 99.8408 20.0728C100.358 20.0728 100.781 20.2314 101.11 20.5487C101.451 20.8543 101.621 21.242 101.621 21.7121C101.621 22.1704 101.451 22.5582 101.11 22.8754C100.781 23.181 100.358 23.3337 99.8408 23.3337ZM101.339 24.3561V34.1918H98.3249V24.3561H101.339Z" fill="white"/>
<path d="M90.0983 24.2151C90.7916 24.2151 91.3968 24.3561 91.9139 24.6381C92.4427 24.9201 92.8481 25.2903 93.1301 25.7486V24.3561H96.1443V34.1742C96.1443 35.079 95.9621 35.8957 95.5979 36.6243C95.2453 37.3646 94.6989 37.9522 93.9586 38.3869C93.23 38.8217 92.3193 39.0391 91.2264 39.0391C89.7693 39.0391 88.5883 38.6925 87.6835 37.9992C86.7786 37.3176 86.2616 36.3893 86.1323 35.2141H89.1112C89.2052 35.5902 89.4285 35.884 89.781 36.0955C90.1336 36.3187 90.5684 36.4304 91.0854 36.4304C91.7082 36.4304 92.2018 36.2482 92.5661 35.884C92.9421 35.5314 93.1301 34.9615 93.1301 34.1742V32.7817C92.8363 33.2399 92.4309 33.616 91.9139 33.9098C91.3968 34.1918 90.7916 34.3328 90.0983 34.3328C89.2875 34.3328 88.553 34.1272 87.895 33.7159C87.2369 33.2928 86.714 32.6994 86.3262 31.9356C85.9502 31.16 85.7622 30.2669 85.7622 29.2563C85.7622 28.2457 85.9502 27.3585 86.3262 26.5947C86.714 25.8309 87.2369 25.2433 87.895 24.832C88.553 24.4207 89.2875 24.2151 90.0983 24.2151ZM93.1301 29.2739C93.1301 28.5219 92.9186 27.9284 92.4956 27.4936C92.0843 27.0589 91.579 26.8415 90.9797 26.8415C90.3804 26.8415 89.8692 27.0589 89.4461 27.4936C89.0348 27.9167 88.8292 28.5042 88.8292 29.2563C88.8292 30.0084 89.0348 30.6077 89.4461 31.0542C89.8692 31.489 90.3804 31.7064 90.9797 31.7064C91.579 31.7064 92.0843 31.489 92.4956 31.0542C92.9186 30.6194 93.1301 30.026 93.1301 29.2739Z" fill="white"/>
<path d="M82.6789 23.3337C82.1501 23.3337 81.7153 23.181 81.3745 22.8754C81.0455 22.5582 80.8809 22.1704 80.8809 21.7121C80.8809 21.242 81.0455 20.8543 81.3745 20.5487C81.7153 20.2314 82.1501 20.0728 82.6789 20.0728C83.1959 20.0728 83.619 20.2314 83.948 20.5487C84.2888 20.8543 84.4592 21.242 84.4592 21.7121C84.4592 22.1704 84.2888 22.5582 83.948 22.8754C83.619 23.181 83.1959 23.3337 82.6789 23.3337ZM84.1771 24.3561V34.1918H81.163V24.3561H84.1771Z" fill="white"/>
<path d="M72.9919 21.8178C74.2963 21.8178 75.4361 22.0764 76.4115 22.5934C77.3868 23.1105 78.1389 23.839 78.6677 24.7791C79.2082 25.7075 79.4785 26.7827 79.4785 28.0048C79.4785 29.2152 79.2082 30.2904 78.6677 31.2305C78.1389 32.1706 77.3809 32.8992 76.3938 33.4162C75.4185 33.9333 74.2845 34.1918 72.9919 34.1918H68.3561V21.8178H72.9919ZM72.798 31.583C73.9379 31.583 74.8251 31.2716 75.4596 30.6488C76.0942 30.026 76.4115 29.1447 76.4115 28.0048C76.4115 26.865 76.0942 25.9777 75.4596 25.3432C74.8251 24.7086 73.9379 24.3913 72.798 24.3913H71.3702V31.583H72.798Z" fill="white"/>
</svg>
