<svg width="178" height="60" viewBox="0 0 178 60" fill="none" xmlns="http://www.w3.org/2000/svg">
<path d="M24.7121 9.27448C24.895 9.30925 25.0779 9.34401 25.2663 9.37983C29.4823 10.2051 29.4823 10.2051 31.0205 11.8202C31.64 12.4513 32.3788 12.759 33.1735 13.1168C37.1987 15.0081 39.4748 19.4744 41.0513 23.4614C42.7555 28.3936 42.0116 34.3841 40.0278 39.1226C38.0787 43.1077 35.0501 46.9816 30.8393 48.584C30.3609 48.7669 30.3609 48.7669 29.8728 48.9535C27.8654 49.5209 27.8654 49.5209 26.9368 49.3229C26.1233 49.1189 26.1233 49.1189 25.1133 49.3599C24.7883 49.3964 24.4633 49.433 24.1285 49.4707C23.8397 49.1781 23.5508 48.8855 23.2532 48.584C25.1308 47.8525 25.1308 47.8525 27.0463 47.1062C26.95 46.9111 26.8537 46.7161 26.7545 46.5151C26.9692 46.3829 27.184 46.2507 27.4053 46.1145C28.912 45.1688 30.2115 44.2746 31.4228 42.9684C31.6154 42.9684 31.808 42.9684 32.0064 42.9684C32.082 42.803 32.1576 42.6377 32.2355 42.4673C32.631 41.7071 33.0954 41.0411 33.5929 40.3453C34.3363 39.2837 34.9787 38.248 35.5077 37.0572C35.6039 36.8621 35.7002 36.667 35.7994 36.466C35.992 36.466 36.1846 36.466 36.383 36.466C37.0694 30.7666 37.7042 25.2143 33.9935 20.346C31.2513 16.922 28.2095 14.9611 23.8368 14.299C18.9893 13.8179 14.5846 14.9515 10.7743 18.1009C7.52878 21.2503 5.53315 25.2895 5.3457 29.8344C5.40703 33.0731 6.24638 36.4525 8.08107 39.1261C8.22775 39.3497 8.37443 39.5734 8.52556 39.8038C10.3652 42.4154 12.9167 44.1496 15.9589 45.0373C16.3773 45.0848 16.7969 45.1226 17.2172 45.1481C18.2889 45.3321 18.481 45.3724 19.1684 46.1272C19.8159 47.2134 20.0063 47.6427 19.752 48.8796C19.1405 49.8899 18.5537 50.5649 17.4178 50.9485C13.8726 51.3389 10.4902 49.4505 7.79841 47.3013C5.53251 45.3699 4.0272 43.1755 2.53739 40.6039C2.34482 40.3113 2.15225 40.0187 1.95385 39.7172C1.51083 38.3534 1.15528 36.9655 0.786759 35.5794C0.719059 35.3561 0.651359 35.1328 0.581607 34.9028C-0.952652 29.33 0.741366 23.6173 3.41271 18.7324C5.3353 15.5884 8.20438 13.0266 11.5823 11.639C11.9242 11.4904 12.2661 11.3418 12.6184 11.1887C16.3938 9.60699 20.6292 8.44731 24.7121 9.27448Z" fill="#9EFF00"/>
<path d="M152.354 24.9819C153.766 24.9819 154.889 25.4429 155.725 26.3649C156.575 27.2724 157 28.5257 157 30.1247V37.169H153.326V30.6217C153.326 29.815 153.118 29.1883 152.7 28.7418C152.282 28.2952 151.72 28.0719 151.014 28.0719C150.309 28.0719 149.747 28.2952 149.329 28.7418C148.911 29.1883 148.702 29.815 148.702 30.6217V37.169H145.007V25.1116H148.702V26.7106C149.077 26.1776 149.581 25.7598 150.215 25.4573C150.849 25.1404 151.562 24.9819 152.354 24.9819Z" fill="white"/>
<path d="M143.058 30.9458C143.058 31.2915 143.037 31.6517 142.993 32.0262H134.631C134.689 32.7753 134.926 33.3515 135.344 33.7549C135.776 34.1438 136.302 34.3383 136.921 34.3383C137.843 34.3383 138.484 33.9494 138.845 33.1715H142.777C142.576 33.9638 142.208 34.6768 141.675 35.3107C141.157 35.9445 140.501 36.4415 139.709 36.8017C138.917 37.1618 138.031 37.3419 137.051 37.3419C135.87 37.3419 134.818 37.0898 133.896 36.5856C132.974 36.0814 132.254 35.3611 131.735 34.4247C131.217 33.4884 130.958 32.3936 130.958 31.1403C130.958 29.887 131.21 28.7922 131.714 27.8558C132.232 26.9195 132.953 26.1992 133.875 25.695C134.797 25.1908 135.855 24.9387 137.051 24.9387C138.218 24.9387 139.255 25.1836 140.163 25.6734C141.07 26.1632 141.776 26.8619 142.28 27.7694C142.799 28.6769 143.058 29.7358 143.058 30.9458ZM139.277 29.9734C139.277 29.3396 139.061 28.8354 138.628 28.4609C138.196 28.0863 137.656 27.8991 137.008 27.8991C136.388 27.8991 135.863 28.0791 135.43 28.4393C135.013 28.7994 134.753 29.3108 134.653 29.9734H139.277Z" fill="white"/>
<path d="M122.753 34.1438H129.278V37.169H118.561V34.3599L125.043 25.0252H118.561V22H129.278V24.8091L122.753 34.1438Z" fill="white"/>
<path d="M108.735 24.9387C109.585 24.9387 110.327 25.1116 110.961 25.4573C111.609 25.8031 112.106 26.2568 112.452 26.8186V25.1116H116.147V37.1474C116.147 38.2566 115.924 39.2578 115.477 40.1509C115.045 41.0585 114.375 41.7787 113.468 42.3118C112.574 42.8448 111.458 43.1113 110.118 43.1113C108.332 43.1113 106.884 42.6863 105.775 41.8364C104.666 41.0009 104.032 39.8628 103.873 38.4223H107.525C107.64 38.8832 107.914 39.2434 108.346 39.5027C108.779 39.7764 109.312 39.9132 109.945 39.9132C110.709 39.9132 111.314 39.69 111.76 39.2434C112.221 38.8112 112.452 38.1126 112.452 37.1474V35.4403C112.092 36.0021 111.595 36.4631 110.961 36.8233C110.327 37.169 109.585 37.3419 108.735 37.3419C107.741 37.3419 106.841 37.0898 106.034 36.5856C105.228 36.067 104.587 35.3395 104.111 34.4031C103.65 33.4524 103.42 32.3576 103.42 31.1187C103.42 29.8798 103.65 28.7922 104.111 27.8558C104.587 26.9195 105.228 26.1992 106.034 25.695C106.841 25.1908 107.741 24.9387 108.735 24.9387ZM112.452 31.1403C112.452 30.2183 112.193 29.4909 111.674 28.9579C111.17 28.4249 110.55 28.1584 109.816 28.1584C109.081 28.1584 108.454 28.4249 107.936 28.9579C107.432 29.4765 107.18 30.1967 107.18 31.1187C107.18 32.0406 107.432 32.7753 107.936 33.3227C108.454 33.8557 109.081 34.1222 109.816 34.1222C110.55 34.1222 111.17 33.8557 111.674 33.3227C112.193 32.7897 112.452 32.0622 112.452 31.1403Z" fill="white"/>
<path d="M96.9408 24.9819C98.3525 24.9819 99.4762 25.4429 100.312 26.3649C101.162 27.2724 101.587 28.5257 101.587 30.1247V37.169H97.9132V30.6217C97.9132 29.815 97.7043 29.1883 97.2865 28.7418C96.8688 28.2952 96.307 28.0719 95.6011 28.0719C94.8952 28.0719 94.3334 28.2952 93.9156 28.7418C93.4979 29.1883 93.289 29.815 93.289 30.6217V37.169H89.594V25.1116H93.289V26.7106C93.6635 26.1776 94.1677 25.7598 94.8016 25.4573C95.4354 25.1404 96.1485 24.9819 96.9408 24.9819Z" fill="white"/>
<path d="M81.3242 37.3419C80.143 37.3419 79.077 37.0898 78.1262 36.5856C77.1899 36.0814 76.448 35.3611 75.9006 34.4247C75.3676 33.4884 75.1011 32.3936 75.1011 31.1403C75.1011 29.9014 75.3748 28.8138 75.9222 27.8774C76.4696 26.9267 77.2187 26.1992 78.1694 25.695C79.1202 25.1908 80.1862 24.9387 81.3675 24.9387C82.5487 24.9387 83.6147 25.1908 84.5655 25.695C85.5163 26.1992 86.2653 26.9267 86.8127 27.8774C87.3602 28.8138 87.6339 29.9014 87.6339 31.1403C87.6339 32.3792 87.353 33.474 86.7911 34.4247C86.2437 35.3611 85.4874 36.0814 84.5223 36.5856C83.5715 37.0898 82.5055 37.3419 81.3242 37.3419ZM81.3242 34.1438C82.0301 34.1438 82.6279 33.8845 83.1177 33.3659C83.6219 32.8473 83.874 32.1055 83.874 31.1403C83.874 30.1751 83.6291 29.4332 83.1393 28.9146C82.664 28.396 82.0733 28.1367 81.3675 28.1367C80.6472 28.1367 80.0494 28.396 79.574 28.9146C79.0986 29.4188 78.8609 30.1607 78.8609 31.1403C78.8609 32.1055 79.0914 32.8473 79.5524 33.3659C80.0278 33.8845 80.6184 34.1438 81.3242 34.1438Z" fill="white"/>
<path d="M73.1786 22V37.169H69.4835V28.0719L66.0911 37.169H63.1091L59.695 28.0503V37.169H56V22H60.3649L64.6217 32.5016L68.8353 22H73.1786Z" fill="white"/>
</svg>
